<?xml version="1.0" standalone="no"?>
<!DOCTYPE svg PUBLIC "-//W3C//DTD SVG 20010904//EN"
 "http://www.w3.org/TR/2001/REC-SVG-20010904/DTD/svg10.dtd">
<svg version="1.0" xmlns="http://www.w3.org/2000/svg"
 width="700.000000pt" height="700.000000pt" viewBox="0 0 700.000000 700.000000"
 preserveAspectRatio="xMidYMid meet">
<metadata>
Created by potrace 1.14, written by Peter Selinger 2001-2017
</metadata>
<g transform="translate(0.000000,700.000000) scale(0.100000,-0.100000)"
fill="#000000" stroke="none">
<path d="M3235 6074 c-231 -33 -394 -75 -550 -139 -500 -207 -871 -596 -1014
-1062 -51 -166 -65 -261 -65 -443 0 -291 73 -549 224 -795 93 -152 264 -342
405 -451 33 -25 62 -48 64 -50 5 -4 -89 2 -244 17 -540 52 -921 277 -1161 685
-30 51 -65 100 -77 109 -44 31 -123 10 -145 -40 -20 -44 -14 -78 32 -158 234
-411 597 -667 1084 -767 123 -25 334 -50 422 -50 36 0 81 -3 102 -6 35 -6 37
-8 52 -71 9 -35 14 -68 11 -73 -10 -15 -203 -116 -316 -164 -256 -109 -440
-151 -669 -150 -131 0 -172 5 -266 26 -129 31 -254 80 -376 149 -93 52 -122
58 -168 34 -36 -19 -50 -43 -50 -89 0 -54 36 -86 177 -158 269 -138 542 -195
811 -169 270 27 478 91 780 241 l173 86 44 -65 c50 -76 54 -60 -49 -204 -159
-222 -311 -387 -465 -503 -114 -85 -319 -187 -441 -218 -132 -33 -269 -48
-416 -44 l-126 3 -29 -33 c-50 -56 -34 -135 34 -163 54 -23 337 -17 474 10
440 85 790 337 1128 810 41 58 76 109 78 115 2 6 28 -7 58 -29 30 -21 55 -40
57 -41 2 -1 -30 -44 -70 -96 -158 -201 -250 -402 -300 -653 -19 -92 -22 -142
-22 -310 1 -212 11 -306 60 -523 47 -212 91 -344 124 -374 51 -47 127 -33 159
29 17 33 14 53 -23 176 -180 596 -148 1067 97 1432 72 107 169 216 186 210
149 -58 262 -78 436 -78 153 0 235 12 367 53 l60 19 62 -66 c188 -201 307
-432 352 -683 23 -129 23 -369 -1 -525 -16 -110 -66 -324 -113 -485 -22 -77
-15 -118 24 -149 36 -29 95 -28 129 2 44 38 138 387 171 637 22 167 15 474
-14 605 -56 255 -170 482 -346 687 l-66 76 51 37 c28 20 56 38 62 40 7 3 45
-44 85 -104 318 -473 680 -756 1095 -856 131 -32 317 -48 445 -40 89 6 107 10
132 32 37 31 47 80 26 122 -27 51 -58 61 -177 54 -182 -10 -408 28 -570 96
-289 123 -546 362 -806 751 l-70 105 36 52 c20 29 39 52 43 53 4 0 54 -26 109
-57 135 -75 316 -155 459 -203 460 -154 887 -120 1288 102 108 60 136 92 128
148 -7 45 -55 90 -96 90 -17 0 -82 -27 -152 -64 -388 -204 -756 -216 -1206
-40 -117 45 -395 183 -421 209 -12 12 -12 21 1 67 l15 53 49 7 c27 3 81 7 119
7 184 2 478 53 660 113 344 114 637 346 825 653 70 114 83 150 70 190 -21 64
-83 91 -145 63 -16 -7 -46 -45 -79 -102 -147 -249 -312 -408 -546 -526 -208
-104 -428 -158 -740 -180 -197 -13 -180 -16 -180 24 0 29 7 39 58 77 250 189
460 480 557 773 60 180 70 248 70 476 0 228 -10 296 -70 476 -168 505 -613
919 -1169 1089 -193 59 -314 76 -556 80 -124 2 -238 1 -255 -1z m426 -604
c152 -52 238 -157 257 -318 14 -117 -6 -216 -74 -368 -3 -6 37 10 87 35 89 44
95 46 183 46 75 0 99 -4 137 -23 140 -69 231 -251 232 -467 1 -276 -127 -460
-328 -473 -95 -6 -161 9 -272 63 -89 43 -261 164 -312 219 -39 42 -44 33 -38
-58 12 -165 87 -318 221 -452 109 -108 192 -147 399 -189 15 -3 27 -10 27 -15
0 -6 -261 -10 -706 -10 -539 0 -705 3 -702 12 3 7 36 18 74 25 220 40 379 160
491 370 49 92 69 160 79 274 l7 82 -70 -59 c-255 -220 -478 -305 -647 -248
-221 76 -316 460 -182 739 65 136 153 204 276 213 79 5 157 -14 246 -63 l60
-33 -32 81 c-65 161 -68 312 -9 434 51 102 167 181 300 204 79 13 226 2 296
-21z m-512 -2656 c179 -53 229 -268 91 -387 -24 -20 -47 -37 -51 -37 -4 0 1
21 13 46 64 146 -70 296 -202 225 -74 -39 -105 -164 -60 -238 24 -39 15 -42
-29 -9 -160 118 -118 332 78 402 49 18 97 17 160 -2z m760 0 c60 -17 123 -70
152 -125 26 -51 25 -137 -1 -188 -18 -35 -93 -111 -111 -111 -4 0 2 17 13 38
25 48 21 140 -9 180 -37 51 -83 74 -134 70 -54 -6 -90 -29 -118 -79 -28 -49
-28 -132 -1 -176 23 -39 14 -42 -26 -10 -51 39 -73 71 -89 124 -36 118 30 232
162 279 51 18 98 17 162 -2z"/>
</g>
</svg>
