<?xml version="1.0" encoding="UTF-8" standalone="no"?>
<svg
   xmlns:dc="http://purl.org/dc/elements/1.1/"
   xmlns:cc="http://creativecommons.org/ns#"
   xmlns:rdf="http://www.w3.org/1999/02/22-rdf-syntax-ns#"
   xmlns:svg="http://www.w3.org/2000/svg"
   xmlns="http://www.w3.org/2000/svg"
   xmlns:sodipodi="http://sodipodi.sourceforge.net/DTD/sodipodi-0.dtd"
   xmlns:inkscape="http://www.inkscape.org/namespaces/inkscape"
   width="256mm"
   height="187mm"
   viewBox="0 0 256 187"
   version="1.1"
   id="svg8"
   inkscape:version="1.0 (4035a4fb49, 2020-05-01)"
   sodipodi:docname="undo.svg">
  <defs
     id="defs2" />
  <sodipodi:namedview
     id="base"
     pagecolor="#ffffff"
     bordercolor="#666666"
     borderopacity="1.0"
     inkscape:pageopacity="0.0"
     inkscape:pageshadow="2"
     inkscape:zoom="0.49497474"
     inkscape:cx="363.52689"
     inkscape:cy="567.35936"
     inkscape:document-units="mm"
     inkscape:current-layer="text851"
     inkscape:document-rotation="0"
     showgrid="false"
     units="px"
     inkscape:window-width="1680"
     inkscape:window-height="987"
     inkscape:window-x="-8"
     inkscape:window-y="-8"
     inkscape:window-maximized="1" />
  <metadata
     id="metadata5">
    <rdf:RDF>
      <cc:Work
         rdf:about="">
        <dc:format>image/svg+xml</dc:format>
        <dc:type
           rdf:resource="http://purl.org/dc/dcmitype/StillImage" />
        <dc:title></dc:title>
      </cc:Work>
    </rdf:RDF>
  </metadata>
  <g
     inkscape:label="Layer 1"
     inkscape:groupmode="layer"
     id="layer1">
    <g
       id="g1044"
       transform="matrix(0.38848912,0,0,0.38848912,91.018449,82.154312)">
      <g
         transform="translate(0,-86.684438)"
         style="font-style:normal;font-weight:normal;font-size:939.163px;line-height:1.25;font-family:sans-serif;letter-spacing:0px;word-spacing:0px;fill:#000000;fill-opacity:1;stroke:none;stroke-width:23.4791"
         id="text851"
         aria-label="⎌">
        <path
           id="path853"
           style="stroke-width:8.03368431;fill:#ffffff;stroke:#000000;stroke-miterlimit:4;stroke-dasharray:none"
           d="M -0.14024585,8.2975356 -116.61847,100.92983 l -27.97312,-146.285651 51.360478,18.801604 q 28.431693,-38.061783 70.162081,-61.449144 54.111932,-30.724569 116.936803,-30.724569 62.824868,0 116.478228,30.265994 54.11193,29.80742 84.37793,83.0022007 Q 325.4485,47.735045 325.4485,114.22852 v 2.75146 q 17.42587,3.6686 33.01745,12.38154 27.05596,15.133 42.18896,41.73039 15.59158,26.59739 15.59158,59.61484 0,33.01745 -15.133,59.61484 -15.133,26.13881 -42.18897,41.73039 -26.59739,15.13299 -58.69769,15.13299 -31.18314,0 -58.69768,-15.13299 -27.51455,-15.133 -42.64754,-41.73039 -14.67443,-26.59739 -14.67443,-59.61484 0,-32.1003 15.133,-58.69769 15.59158,-27.05597 42.64754,-42.18897 19.71876,-11.46439 41.27181,-14.21584 v -1.37573 q 0,-55.946234 -25.22166,-99.9695 -24.76309,-44.023267 -68.32778,-67.410628 -43.56469,-23.845936 -95.842318,-23.845936 -50.443327,0 -94.00801785,23.845936 -29.80742015,16.05015 -50.90190215,42.188964 z M -112.49129,114.22852 q 31.641722,0 58.239112,15.133 27.055966,15.133 42.188964,41.73039 15.5915737,26.59739 15.5915737,59.61484 0,33.01745 -15.1329977,59.61484 -15.132998,26.13881 -42.188964,41.73039 -26.597391,15.13299 -58.697688,15.13299 -31.18315,0 -58.69769,-15.13299 -27.51454,-15.133 -42.64754,-41.73039 -14.67442,-26.59739 -14.67442,-59.61484 0,-32.1003 15.133,-58.69769 15.59157,-27.05597 42.64754,-42.18897 27.05596,-15.59157 58.23911,-15.59157 z m 0,34.39318 q -21.09448,0 -39.89609,10.08866 -18.8016,10.08867 -29.80742,29.34885 -10.54724,18.8016 -10.54724,42.64754 0,22.92878 10.08867,42.64754 10.54724,19.71875 29.80742,29.80742 19.26018,10.08866 40.35466,10.08866 22.928783,0 41.271811,-10.08866 18.343028,-10.08867 29.348845,-29.80742 11.005817,-19.71876 11.005817,-42.64754 0,-23.84594 -11.005817,-42.64754 -11.005817,-19.26018 -29.80742,-29.34885 -18.343028,-10.08866 -40.813236,-10.08866 z m 412.71812,0 q -21.09448,0 -39.89608,10.08866 -18.8016,10.08867 -29.80742,29.34885 -10.54724,18.8016 -10.54724,42.64754 0,22.92878 10.08866,42.64754 10.54724,19.71875 29.80742,29.80742 19.26018,10.08866 40.35466,10.08866 22.92879,0 41.27182,-10.08866 18.34303,-10.08867 29.34884,-29.80742 11.00582,-19.71876 11.00582,-42.64754 0,-23.84594 -11.00582,-42.64754 -11.00581,-19.26018 -29.80742,-29.34885 -18.34303,-10.08866 -40.81324,-10.08866 z" />
      </g>
    </g>
  </g>
</svg>
